<svg width="64" height="64" viewBox="0 0 64 64" fill="none" xmlns="http://www.w3.org/2000/svg">
<path fill-rule="evenodd" clip-rule="evenodd" d="M11.808 37.6934C10.976 40.352 10.5627 41.68 10.664 42.9414C10.76 44.0534 11.1387 45.1227 11.7653 46.048C12.4747 47.0934 13.632 47.8667 15.952 49.4107L26.1893 56.2374C28.256 57.6134 29.2907 58.304 30.408 58.5734C31.3947 58.8134 32.4267 58.8134 33.416 58.5814C34.536 58.3147 35.576 57.6294 37.6507 56.2614L48 49.4214C50.3413 47.872 51.5147 47.1014 52.2347 46.0454C52.8655 45.1164 53.2441 44.0394 53.3334 42.92C53.4374 41.648 53.008 40.312 52.16 37.6347L43.0933 9.10136C42.6533 7.71469 42.4347 7.02403 42.0133 6.50936C41.6422 6.05725 41.1623 5.70675 40.6187 5.49069C40.0053 5.24536 39.28 5.24536 37.8267 5.24536H26.0107C24.552 5.24536 23.8187 5.24536 23.2027 5.49603C22.6572 5.71257 22.1761 6.06508 21.8053 6.52003C21.384 7.03736 21.168 7.73336 20.736 9.12536L11.808 37.6934ZM38.288 11.3014C38.6347 11.7334 38.816 12.3227 39.1707 13.488L46.9547 39.056C44.0305 37.54 40.8922 36.4789 37.648 35.9094L32.5813 18.7814C32.5397 18.6463 32.4559 18.528 32.3421 18.4441C32.2284 18.3601 32.0907 18.3148 31.9493 18.3148C31.808 18.3148 31.6703 18.3601 31.5566 18.4441C31.4428 18.528 31.359 18.6463 31.3173 18.7814L26.3093 35.896C23.0507 36.4643 19.8984 37.5291 16.9627 39.0534L24.7867 13.4854C25.1413 12.3147 25.32 11.7307 25.6693 11.2987C25.9787 10.9174 26.3813 10.6214 26.8347 10.4374C27.352 10.2294 27.9627 10.2294 29.184 10.2294H34.7707C35.992 10.2294 36.6053 10.2294 37.1227 10.4374C37.576 10.6214 37.976 10.9174 38.288 11.3014ZM32.2533 42.12C35.2027 42.12 37.7653 41.3734 39.048 40.2747C39.2759 40.9923 39.3568 41.7485 39.2858 42.4981C39.2148 43.2477 38.9933 43.9753 38.6347 44.6374C37.8133 46.1574 36.6213 46.912 35.5467 47.592C34.1973 48.448 33.0373 49.1867 33.0373 51.1654C33.0373 51.8187 33.1867 52.4427 33.456 52.9947C32.5472 52.6169 31.7707 51.9784 31.2244 51.1597C30.6781 50.341 30.3866 49.3789 30.3867 48.3947V48.272C30.3867 46.9067 30.3893 45.224 28.4613 45.224C28.1935 45.2237 27.9281 45.2761 27.6805 45.3783C27.4328 45.4805 27.2077 45.6305 27.0181 45.8196C26.8284 46.0088 26.6778 46.2335 26.575 46.4809C26.4721 46.7283 26.419 46.9935 26.4187 47.2614C24.2533 45.0934 24.4427 41.9734 24.4427 41.9734C24.4427 41.336 24.5067 40.344 24.792 39.4774C25.5973 40.992 28.632 42.1174 32.2533 42.1174V42.12Z" fill="#FF6D00"/>
</svg>
