<svg width="64" height="64" viewBox="0 0 64 64" fill="none" xmlns="http://www.w3.org/2000/svg">
<path d="M23.5147 57.6266C28.2 57.6266 32.0027 53.7999 32.0027 49.0853V40.5439H23.5147C18.8347 40.5439 15.032 44.3679 15.032 49.0853C15.032 53.8026 18.8347 57.6266 23.5147 57.6266Z" fill="#00E676"/>
<path d="M15.032 32C15.032 27.2853 18.8347 23.4586 23.5147 23.4586H32.0027V40.544H23.5147C18.8347 40.544 15.032 36.7173 15.032 32Z" fill="#7C4DFF"/>
<path d="M15.032 14.9173C15.032 10.2026 18.8347 6.37329 23.5147 6.37329H32.0027V23.4586H23.5147C18.8347 23.4586 15.032 19.632 15.032 14.9173Z" fill="#F4511E"/>
<path d="M32 6.37329H40.4853C45.168 6.37329 48.9707 10.2026 48.9707 14.9173C48.9707 19.632 45.168 23.4586 40.4853 23.4586H32V6.37329Z" fill="#FF8A65"/>
<path d="M48.9707 32C48.9707 36.7173 45.168 40.544 40.4853 40.544C35.8027 40.544 32 36.7173 32 32C32 27.2826 35.8027 23.4586 40.4853 23.4586C45.168 23.4586 48.9707 27.2853 48.9707 32Z" fill="#29B6F6"/>
</svg>
