<svg width="33" height="33" viewBox="0 0 33 33" fill="none" xmlns="http://www.w3.org/2000/svg">
<g clip-path="url(#clip0_13_14)">
<path d="M27.0784 13.2509V14.2509C27.0763 15.9429 26.462 17.577 25.3491 18.8514C24.2362 20.1259 22.6997 20.9546 21.0234 21.1846C21.7076 22.0602 22.079 23.1396 22.0784 24.2509V29.2509C22.0784 29.5161 21.973 29.7704 21.7855 29.958C21.5979 30.1455 21.3436 30.2509 21.0784 30.2509H13.0784C12.8132 30.2509 12.5588 30.1455 12.3713 29.958C12.1837 29.7704 12.0784 29.5161 12.0784 29.2509V27.2509H9.07837C7.75229 27.2509 6.48052 26.7241 5.54284 25.7864C4.60515 24.8487 4.07837 23.577 4.07837 22.2509C4.07837 21.4552 3.7623 20.6922 3.19969 20.1296C2.63708 19.5669 1.87402 19.2509 1.07837 19.2509C0.813153 19.2509 0.558799 19.1455 0.371262 18.958C0.183726 18.7704 0.0783691 18.5161 0.0783691 18.2509C0.0783691 17.9857 0.183726 17.7313 0.371262 17.5438C0.558799 17.3562 0.813153 17.2509 1.07837 17.2509C1.73498 17.2509 2.38516 17.3802 2.99179 17.6315C3.59841 17.8827 4.14961 18.251 4.6139 18.7153C5.0782 19.1796 5.44649 19.7308 5.69777 20.3375C5.94904 20.9441 6.07837 21.5943 6.07837 22.2509C6.07837 23.0465 6.39444 23.8096 6.95705 24.3722C7.51966 24.9348 8.28272 25.2509 9.07837 25.2509H12.0784V24.2509C12.0777 23.1396 12.4491 22.0602 13.1334 21.1846C11.4571 20.9546 9.92059 20.1259 8.80765 18.8514C7.69471 17.577 7.08047 15.9429 7.07837 14.2509V13.2509C7.09082 12.0081 7.42178 10.7893 8.03962 9.71087C7.73396 8.72487 7.63591 7.68622 7.75166 6.66044C7.8674 5.63465 8.19443 4.64397 8.71212 3.75087C8.79991 3.59882 8.92618 3.47256 9.07824 3.38479C9.2303 3.29702 9.40279 3.25083 9.57837 3.25087C10.7431 3.24843 11.8923 3.51845 12.9341 4.03935C13.9759 4.56025 14.8815 5.3176 15.5784 6.25087H18.5784C19.2753 5.3176 20.1808 4.56025 21.2226 4.03935C22.2644 3.51845 23.4136 3.24843 24.5784 3.25087C24.7539 3.25083 24.9264 3.29702 25.0785 3.38479C25.2306 3.47256 25.3568 3.59882 25.4446 3.75087C25.9624 4.64395 26.2894 5.63469 26.4049 6.66052C26.5204 7.68635 26.422 8.72499 26.1159 9.71087C26.7349 10.7888 27.0663 12.0079 27.0784 13.2509Z" fill="black"/>
</g>
<defs>
<clipPath id="clip0_13_14">
<rect width="32" height="32" fill="white" transform="translate(0.0783691 0.250854)"/>
</clipPath>
</defs>
</svg>
