<svg width="64" height="64" viewBox="0 0 64 64" fill="none" xmlns="http://www.w3.org/2000/svg">
<path fill-rule="evenodd" clip-rule="evenodd" d="M34.2373 39.888L27.712 33.44L27.7893 33.36C32.1412 28.5234 35.3927 22.8009 37.32 16.5866H44.848V11.4426H26.864V6.30664H21.7253V11.4453H3.73866V16.5866H32.4373C30.6621 21.664 27.8936 26.3371 24.2933 30.3333C21.9484 27.7346 19.9528 24.8408 18.3573 21.7253H13.2213C15.1478 26.0044 17.73 29.9568 20.8747 33.44L7.8 46.3386L11.448 49.9866L24.2933 37.1413L32.2853 45.1306L34.2373 39.888ZM48.7013 26.864H43.5627L32.0027 57.696H37.1413L40.0187 49.9893H52.2213L55.1253 57.696H60.264L48.7013 26.864ZM41.9707 44.848L46.1307 33.7226L50.2933 44.848H41.9707Z" fill="#7986CB"/>
</svg>
