<svg width="33" height="33" viewBox="0 0 33 33" fill="none" xmlns="http://www.w3.org/2000/svg">
<path d="M22.0784 3.25085H10.0784C8.22246 3.25284 6.44314 3.99098 5.13081 5.3033C3.81849 6.61562 3.08035 8.39495 3.07837 10.2509V22.2509C3.08035 24.1068 3.81849 25.8861 5.13081 27.1984C6.44314 28.5107 8.22246 29.2489 10.0784 29.2509H22.0784C23.9343 29.2489 25.7136 28.5107 27.0259 27.1984C28.3382 25.8861 29.0764 24.1068 29.0784 22.2509V10.2509C29.0764 8.39495 28.3382 6.61562 27.0259 5.3033C25.7136 3.99098 23.9343 3.25284 22.0784 3.25085ZM16.0784 22.2509C14.8917 22.2509 13.7316 21.899 12.7449 21.2397C11.7583 20.5804 10.9892 19.6433 10.5351 18.547C10.081 17.4506 9.96215 16.2442 10.1937 15.0803C10.4252 13.9164 10.9966 12.8473 11.8357 12.0082C12.6748 11.1691 13.7439 10.5977 14.9078 10.3661C16.0717 10.1346 17.2781 10.2535 18.3745 10.7076C19.4708 11.1617 20.4079 11.9307 21.0672 12.9174C21.7265 13.9041 22.0784 15.0642 22.0784 16.2509C22.0767 17.8416 21.444 19.3668 20.3192 20.4917C19.1943 21.6165 17.6692 22.2492 16.0784 22.2509ZM23.5784 10.2509C23.2817 10.2509 22.9917 10.1629 22.745 9.99806C22.4983 9.83324 22.3061 9.59897 22.1926 9.32488C22.079 9.05079 22.0493 8.74919 22.1072 8.45822C22.1651 8.16725 22.3079 7.89997 22.5177 7.69019C22.7275 7.48042 22.9948 7.33755 23.2857 7.27968C23.5767 7.2218 23.8783 7.2515 24.1524 7.36504C24.4265 7.47857 24.6608 7.67083 24.8256 7.9175C24.9904 8.16417 25.0784 8.45418 25.0784 8.75085C25.0784 9.14868 24.9203 9.53021 24.639 9.81151C24.3577 10.0928 23.9762 10.2509 23.5784 10.2509ZM20.0784 16.2509C20.0784 17.042 19.8438 17.8153 19.4042 18.4731C18.9647 19.1309 18.34 19.6436 17.6091 19.9464C16.8782 20.2491 16.0739 20.3283 15.298 20.174C14.5221 20.0197 13.8094 19.6387 13.2499 19.0793C12.6905 18.5199 12.3096 17.8071 12.1552 17.0312C12.0009 16.2553 12.0801 15.451 12.3829 14.7201C12.6856 13.9892 13.1983 13.3645 13.8561 12.925C14.5139 12.4855 15.2872 12.2509 16.0784 12.2509C17.1392 12.2509 18.1567 12.6723 18.9068 13.4224C19.6569 14.1726 20.0784 15.19 20.0784 16.2509Z" fill="black"/>
</svg>
