<svg width="33" height="33" viewBox="0 0 33 33" fill="none" xmlns="http://www.w3.org/2000/svg">
<path d="M27.0784 3.25085H5.07837C4.54794 3.25085 4.03923 3.46157 3.66416 3.83664C3.28908 4.21171 3.07837 4.72042 3.07837 5.25085V27.2509C3.07837 27.7813 3.28908 28.29 3.66416 28.6651C4.03923 29.0401 4.54794 29.2509 5.07837 29.2509H27.0784C27.6088 29.2509 28.1175 29.0401 28.4926 28.6651C28.8677 28.29 29.0784 27.7813 29.0784 27.2509V5.25085C29.0784 4.72042 28.8677 4.21171 28.4926 3.83664C28.1175 3.46157 27.6088 3.25085 27.0784 3.25085ZM12.0784 22.2509C12.0784 22.5161 11.973 22.7704 11.7855 22.958C11.5979 23.1455 11.3436 23.2509 11.0784 23.2509C10.8132 23.2509 10.5588 23.1455 10.3713 22.958C10.1837 22.7704 10.0784 22.5161 10.0784 22.2509V14.2509C10.0784 13.9856 10.1837 13.7313 10.3713 13.5437C10.5588 13.3562 10.8132 13.2509 11.0784 13.2509C11.3436 13.2509 11.5979 13.3562 11.7855 13.5437C11.973 13.7313 12.0784 13.9856 12.0784 14.2509V22.2509ZM11.0784 12.2509C10.7817 12.2509 10.4917 12.1629 10.245 11.9981C9.99834 11.8332 9.80608 11.599 9.69255 11.3249C9.57902 11.0508 9.54931 10.7492 9.60719 10.4582C9.66507 10.1672 9.80793 9.89997 10.0177 9.69019C10.2275 9.48042 10.4948 9.33755 10.7857 9.27968C11.0767 9.2218 11.3783 9.2515 11.6524 9.36504C11.9265 9.47857 12.1608 9.67083 12.3256 9.9175C12.4904 10.1642 12.5784 10.4542 12.5784 10.7509C12.5784 11.1487 12.4203 11.5302 12.139 11.8115C11.8577 12.0928 11.4762 12.2509 11.0784 12.2509ZM23.0784 22.2509C23.0784 22.5161 22.973 22.7704 22.7855 22.958C22.5979 23.1455 22.3436 23.2509 22.0784 23.2509C21.8132 23.2509 21.5588 23.1455 21.3713 22.958C21.1837 22.7704 21.0784 22.5161 21.0784 22.2509V17.7509C21.0784 17.0878 20.815 16.4519 20.3461 15.9831C19.8773 15.5142 19.2414 15.2509 18.5784 15.2509C17.9153 15.2509 17.2794 15.5142 16.8106 15.9831C16.3418 16.4519 16.0784 17.0878 16.0784 17.7509V22.2509C16.0784 22.5161 15.973 22.7704 15.7855 22.958C15.5979 23.1455 15.3436 23.2509 15.0784 23.2509C14.8132 23.2509 14.5588 23.1455 14.3713 22.958C14.1837 22.7704 14.0784 22.5161 14.0784 22.2509V14.2509C14.0796 14.0059 14.1707 13.7699 14.3344 13.5877C14.4981 13.4055 14.7229 13.2897 14.9663 13.2622C15.2097 13.2348 15.4548 13.2976 15.6549 13.4388C15.855 13.5801 15.9964 13.7898 16.0521 14.0284C16.7286 13.5694 17.5173 13.3035 18.3336 13.259C19.1498 13.2145 19.9627 13.3932 20.6851 13.7759C21.4074 14.1586 22.0119 14.7308 22.4335 15.4312C22.8552 16.1315 23.0781 16.9334 23.0784 17.7509V22.2509Z" fill="black"/>
</svg>
