<svg width="64" height="64" viewBox="0 0 64 64" fill="none" xmlns="http://www.w3.org/2000/svg">
<path d="M30.7755 5.64264L9.83681 17.7024C9.4523 17.9232 9.13288 18.2414 8.91077 18.625C8.68866 19.0085 8.57172 19.4438 8.57175 19.8869V44.0405C8.57162 44.484 8.68825 44.9197 8.90992 45.3038C9.1316 45.688 9.45052 46.0072 9.83468 46.2293L30.7776 58.3082C31.1624 58.5295 31.5986 58.646 32.0427 58.646C32.4867 58.646 32.923 58.5295 33.3077 58.3082L54.2443 46.2314C54.6284 46.0093 54.9474 45.6902 55.169 45.306C55.3907 44.9218 55.5073 44.4861 55.5072 44.0426V19.8976C55.5072 19.4545 55.3903 19.0192 55.1682 18.6356C54.9461 18.2521 54.6267 17.9338 54.2421 17.713L33.3077 5.65331C32.9232 5.43141 32.4869 5.31458 32.0427 5.31458C31.5985 5.31458 31.1622 5.43141 30.7776 5.65331L30.7755 5.64264Z" fill="#388E3C"/>
<path d="M9.16907 45.5488C9.37127 45.8143 9.62437 46.037 9.9136 46.2037L27.8763 56.5653L30.8672 58.2891C31.3086 58.5428 31.8163 58.6581 32.3243 58.6197C32.4925 58.6052 32.659 58.5745 32.8213 58.528L54.9077 18.144C54.7392 17.9614 54.5452 17.8041 54.3317 17.6768L40.608 9.76853L33.3611 5.60426C33.1566 5.48608 32.936 5.3984 32.7061 5.34399L9.16907 45.5488Z" fill="#4CAF50"/>
<path d="M54.9077 45.5488C54.7055 45.8143 54.4524 46.037 54.1632 46.2037L36.2005 56.5653L33.2096 58.2891C32.7682 58.5428 32.2605 58.6581 31.7525 58.6197C31.5843 58.6052 31.4178 58.5745 31.2555 58.528L9.16907 18.1397C9.33759 17.9572 9.53158 17.7998 9.74507 17.6725L23.4688 9.76853L30.7157 5.60426C30.9202 5.48608 31.1408 5.3984 31.3707 5.34399L54.9077 45.5488Z" fill="#66BB6A"/>
</svg>
