<svg width="64" height="64" viewBox="0 0 64 64" fill="none" xmlns="http://www.w3.org/2000/svg">
<path d="M17.3333 26.1334C19.288 18.3094 24.1787 14.4 32 14.4C43.7333 14.4 45.2027 23.2 51.0693 24.6667C54.9813 25.6454 58.4027 24.176 61.336 20.2667C59.384 28.088 54.4933 32 46.6693 32C34.936 32 33.4693 23.2 27.6027 21.7334C23.688 20.752 20.2693 22.2214 17.3333 26.1334ZM2.66135 43.7334C4.61601 35.912 9.50668 32 17.328 32C29.064 32 30.528 40.8 36.4 42.2667C40.3093 43.248 43.7333 41.7787 46.6667 37.8667C44.7094 45.6907 39.8213 49.6 32 49.6C20.264 49.6 18.7973 40.8 12.928 39.3334C9.01868 38.3547 5.59468 39.824 2.66135 43.7334Z" fill="#4DB6AC"/>
</svg>
