<svg width="33" height="33" viewBox="0 0 33 33" fill="none" xmlns="http://www.w3.org/2000/svg">
<path d="M30.7859 9.95831L27.0484 13.6958C26.2934 22.4483 18.9121 29.2508 10.0784 29.2508C8.26337 29.2508 6.76712 28.9633 5.63087 28.3958C4.71462 27.9371 4.33962 27.4458 4.24587 27.3058C4.16228 27.1804 4.10809 27.0378 4.08737 26.8886C4.06665 26.7393 4.07992 26.5873 4.1262 26.4439C4.17247 26.3005 4.25056 26.1694 4.35461 26.0604C4.45867 25.9515 4.58601 25.8674 4.72712 25.8146C4.75962 25.8021 7.75712 24.6508 9.66087 22.4596C8.6051 21.5915 7.68347 20.5722 6.92587 19.4346C5.37587 17.1333 3.64087 13.1358 4.17587 7.16206C4.19283 6.97224 4.26367 6.79122 4.38006 6.64032C4.49645 6.48941 4.65353 6.37491 4.83282 6.31029C5.0121 6.24567 5.20612 6.23362 5.39202 6.27557C5.57792 6.31752 5.74796 6.41171 5.88212 6.54706C5.92587 6.59081 10.0421 10.6846 15.0746 12.0121V11.2508C15.0727 10.4526 15.2305 9.66198 15.5388 8.92565C15.8471 8.18931 16.2996 7.52211 16.8696 6.96331C17.4232 6.41047 18.082 5.97411 18.807 5.67999C19.532 5.38587 20.3086 5.23994 21.0909 5.25081C22.1403 5.26116 23.1692 5.54288 24.0776 6.06857C24.9859 6.59426 25.7428 7.34603 26.2746 8.25081H30.0784C30.2763 8.25065 30.4698 8.30922 30.6344 8.41909C30.7989 8.52896 30.9272 8.6852 31.003 8.86802C31.0787 9.05084 31.0986 9.25203 31.0599 9.44612C31.0212 9.6402 30.9259 9.81845 30.7859 9.95831Z" fill="black"/>
</svg>
